<!-- Generated by IcoMoon.io -->
<svg version="1.1" xmlns="http://www.w3.org/2000/svg" width="57" height="32" viewBox="0 0 57 32">
<title>LogoClient5</title>
<path fill="#afb1b8" d="M14.66 24.148c0.123 0.152 0.188 0.343 0.185 0.539 0.001 0.012 0.001 0.027 0.001 0.041 0 0.254-0.111 0.482-0.287 0.639l-0.001 0.001c-0.238 0.181-0.533 0.269-0.831 0.249h-1.461v-3.416h1.431c0.024-0.002 0.052-0.003 0.081-0.003 0.267 0 0.515 0.086 0.716 0.232l-0.004-0.002c0.171 0.144 0.278 0.358 0.278 0.597 0 0.015-0 0.029-0.001 0.043l0-0.002c0.009 0.188-0.051 0.373-0.166 0.523-0.111 0.135-0.265 0.229-0.436 0.267 0.194 0.036 0.369 0.139 0.494 0.292zM12.947 23.633h0.612c0.139 0.011 0.277-0.030 0.389-0.114 0.082-0.075 0.133-0.181 0.133-0.3 0-0.012-0.001-0.024-0.002-0.035l0 0.002c0.001-0.009 0.001-0.019 0.001-0.029 0-0.12-0.050-0.228-0.13-0.304l-0-0c-0.097-0.073-0.22-0.117-0.353-0.117-0.017 0-0.033 0.001-0.050 0.002l0.002-0h-0.602v0.896zM14.007 24.942c0.089-0.078 0.145-0.192 0.145-0.32 0-0.009-0-0.019-0.001-0.028l0 0.001c0-0.007 0.001-0.016 0.001-0.025 0-0.13-0.057-0.246-0.148-0.326l-0.001-0c-0.104-0.078-0.234-0.125-0.376-0.125-0.014 0-0.028 0-0.042 0.001l0.002-0h-0.641v0.939h0.65c0.146 0.009 0.291-0.033 0.411-0.118zM17.585 25.617l-0.796-1.335h-0.299v1.335h-0.685v-3.416h1.296c0.027-0.002 0.058-0.003 0.089-0.003 0.31 0 0.595 0.111 0.816 0.295l-0.002-0.002c0.192 0.197 0.311 0.466 0.311 0.763 0 0.245-0.081 0.471-0.217 0.653l0.002-0.003c-0.16 0.184-0.378 0.307-0.618 0.347l0.848 1.365h-0.745zM16.49 23.816h0.56c0.389 0 0.583-0.172 0.583-0.517 0.001-0.009 0.001-0.019 0.001-0.029 0-0.138-0.055-0.263-0.144-0.355l0 0c-0.104-0.088-0.24-0.141-0.388-0.141-0.018 0-0.037 0.001-0.055 0.002l0.002-0h-0.567l0.007 1.040zM21.328 24.929h-1.364l-0.241 0.688h-0.718l1.253-3.378h0.776l1.248 3.378h-0.718l-0.236-0.687zM21.146 24.412l-0.499-1.442-0.499 1.442h0.997zM26.014 25.617h-0.681l-1.524-2.323v2.323h-0.678v-3.416h0.678l1.524 2.336v-2.336h0.68v3.416zM29.893 24.799c-0.143 0.259-0.353 0.465-0.607 0.599l-0.008 0.004c-0.296 0.15-0.624 0.224-0.956 0.215h-1.211v-3.416h1.211c0.016-0 0.034-0.001 0.053-0.001 0.329 0 0.64 0.078 0.915 0.217l-0.012-0.005c0.26 0.131 0.475 0.339 0.615 0.596 0.134 0.261 0.213 0.569 0.213 0.896s-0.079 0.635-0.218 0.907l0.005-0.011zM29.115 24.717c0.187-0.218 0.301-0.503 0.301-0.815s-0.114-0.597-0.302-0.817l0.001 0.002c-0.206-0.182-0.479-0.293-0.778-0.293-0.026 0-0.051 0.001-0.076 0.002l0.003-0h-0.472v2.211h0.472c0.022 0.001 0.048 0.002 0.074 0.002 0.298 0 0.571-0.111 0.778-0.294l-0.001 0.001zM21.754 3.2s8.774 3.326 8.587 8.139v8.14s-8.767-3.328-8.585-8.14l-0.003-8.139zM38.158 17.573c1.571-1.098 3.469-1.837 5.522-2.058l0.053-0.005v-2.548c-2.346 0.925-4.259 2.528-5.547 4.564l-0.028 0.047z"></path>
<path fill="#afb1b8" d="M37.163 18.341c1.37-2.731 3.676-4.824 6.488-5.885l0.082-0.027v-7.342s-12.496 4.738-12.231 11.591v11.59s0.557-0.212 1.433-0.609c0-0.371 0-0.744 0.040-1.12 0.274-3.294 1.835-6.178 4.172-8.183l0.016-0.014z"></path>
<path fill="#afb1b8" d="M35.975 22.646c0.066-0.804 0.212-1.599 0.437-2.373-1.596 1.881-2.587 4.319-2.646 6.988l-0 0.013c1.018-0.489 1.805-0.913 2.574-1.364l-0.171 0.093c-0.149-0.711-0.235-1.529-0.235-2.366 0-0.348 0.015-0.693 0.044-1.034l-0.003 0.044zM36.472 22.688c-0.024 0.281-0.038 0.609-0.038 0.94 0 0.742 0.070 1.468 0.205 2.171l-0.011-0.072c3.413-2.051 7.25-5.22 7.102-9.050v-0.334c-2.543 0.294-4.784 1.401-6.5 3.050l0.004-0.004c-0.392 0.967-0.663 2.087-0.758 3.257l-0.003 0.041z"></path>
</svg>
