<!-- Generated by IcoMoon.io -->
<svg version="1.1" xmlns="http://www.w3.org/2000/svg" width="57" height="32" viewBox="0 0 57 32">
<title>LogoClient3</title>
<path fill="#afb1b8" d="M20.451 27.091c0.017 0 0.032 0.007 0.043 0.018v0l0.109 0.115c-0.085 0.093-0.19 0.167-0.309 0.218-0.139 0.055-0.287 0.082-0.437 0.078-0.007 0-0.014 0-0.022 0-0.14 0-0.274-0.027-0.397-0.076l0.007 0.003c-0.238-0.096-0.421-0.284-0.508-0.52l-0.002-0.006c-0.044-0.117-0.069-0.253-0.069-0.394 0-0.005 0-0.010 0-0.016v0.001c-0-0.005-0-0.011-0-0.017 0-0.142 0.027-0.277 0.077-0.401l-0.003 0.007c0.048-0.118 0.121-0.227 0.213-0.318 0.093-0.091 0.205-0.161 0.329-0.208 0.135-0.050 0.279-0.075 0.423-0.073 0.135-0.003 0.269 0.019 0.394 0.067 0.108 0.045 0.208 0.107 0.295 0.184l-0.092 0.123c-0.006 0.009-0.014 0.016-0.023 0.022l-0 0c-0.009 0.006-0.020 0.010-0.032 0.010-0.002 0-0.003-0-0.005-0h0c-0.015-0.001-0.028-0.006-0.040-0.014l0 0-0.050-0.033-0.069-0.042c-0.063-0.033-0.135-0.059-0.212-0.072l-0.005-0.001c-0.045-0.008-0.097-0.013-0.15-0.013-0.005 0-0.009 0-0.014 0h0.001c-0.003-0-0.007-0-0.011-0-0.106 0-0.206 0.020-0.299 0.056l0.006-0.002c-0.093 0.036-0.173 0.089-0.239 0.155l0-0c-0.068 0.071-0.121 0.155-0.155 0.245-0.039 0.104-0.058 0.214-0.057 0.324-0.002 0.112 0.018 0.224 0.057 0.33 0.034 0.090 0.085 0.173 0.152 0.244 0.063 0.067 0.141 0.118 0.228 0.152 0.090 0.035 0.186 0.053 0.283 0.052 0.056 0.001 0.112-0.003 0.167-0.011 0.091-0.011 0.177-0.041 0.254-0.087 0.038-0.024 0.075-0.051 0.108-0.081 0.014-0.013 0.032-0.021 0.052-0.021h0zM23.62 26.512c0.002 0.139-0.023 0.277-0.074 0.407-0.048 0.123-0.118 0.229-0.206 0.316l-0 0c-0.090 0.088-0.198 0.159-0.318 0.205l-0.006 0.002c-0.124 0.046-0.267 0.073-0.417 0.073s-0.293-0.027-0.426-0.076l0.008 0.003c-0.126-0.049-0.233-0.12-0.323-0.208l0 0c-0.088-0.088-0.159-0.194-0.206-0.312l-0.002-0.006c-0.047-0.121-0.074-0.261-0.074-0.407s0.027-0.286 0.077-0.415l-0.003 0.008c0.046-0.119 0.117-0.228 0.208-0.32 0.090-0.085 0.197-0.153 0.316-0.198l0.007-0.002c0.124-0.047 0.267-0.075 0.417-0.075s0.293 0.027 0.425 0.077l-0.008-0.003c0.122 0.047 0.232 0.117 0.324 0.208 0.091 0.091 0.161 0.197 0.207 0.315 0.051 0.131 0.076 0.269 0.075 0.409zM23.332 26.512c0-0.005 0-0.011 0-0.017 0-0.111-0.019-0.217-0.054-0.316l0.002 0.007c-0.062-0.184-0.199-0.328-0.374-0.397l-0.004-0.002c-0.090-0.034-0.194-0.054-0.303-0.054s-0.213 0.020-0.309 0.056l0.006-0.002c-0.18 0.071-0.318 0.214-0.378 0.394l-0.001 0.005c-0.069 0.213-0.069 0.441 0 0.654 0.062 0.184 0.2 0.327 0.375 0.396l0.004 0.002c0.196 0.069 0.411 0.069 0.606 0 0.089-0.034 0.167-0.086 0.232-0.153 0.066-0.071 0.116-0.155 0.147-0.244 0.037-0.106 0.054-0.216 0.052-0.327zM25.781 26.855l0.029 0.073c0.011-0.026 0.020-0.050 0.031-0.073 0.012-0.029 0.024-0.053 0.038-0.075l-0.002 0.003 0.701-1.214c0.014-0.021 0.026-0.034 0.040-0.038s0.031-0.007 0.047-0.007c0.004 0 0.007 0 0.011 0l-0-0h0.207v1.974h-0.245v-1.513c-0.001-0.010-0.001-0.022-0.001-0.034s0-0.024 0.001-0.036l-0 0.002-0.705 1.231c-0.009 0.019-0.024 0.034-0.041 0.045l-0 0c-0.017 0.010-0.037 0.016-0.059 0.016-0.001 0-0.001 0-0.002 0h-0.039c-0.021 0.001-0.043-0.005-0.060-0.016s-0.032-0.026-0.041-0.044l-0-0.001-0.725-1.239v1.586h-0.237v-1.971h0.207c0.003-0 0.007-0 0.010-0 0.017 0 0.033 0.002 0.049 0.007l-0.001-0c0.017 0.008 0.030 0.021 0.038 0.037l0 0 0.716 1.215c0.013 0.020 0.025 0.043 0.035 0.068l0.001 0.003zM28.42 26.757v0.739h-0.274v-1.971h0.612c0.007-0 0.015-0 0.023-0 0.113 0 0.223 0.016 0.326 0.045l-0.008-0.002c0.089 0.024 0.171 0.066 0.242 0.123 0.061 0.053 0.108 0.12 0.137 0.194 0.032 0.081 0.048 0.166 0.046 0.252 0.002 0.086-0.016 0.172-0.051 0.252-0.035 0.078-0.085 0.144-0.147 0.197l-0.001 0.001c-0.068 0.058-0.149 0.102-0.238 0.129l-0.005 0.001c-0.107 0.033-0.219 0.048-0.331 0.046l-0.332-0.005zM28.42 26.545h0.332c0.073 0.001 0.144-0.009 0.213-0.030 0.059-0.019 0.11-0.048 0.154-0.086l-0.001 0.001c0.040-0.035 0.072-0.079 0.092-0.128l0.001-0.002c0.021-0.048 0.033-0.103 0.033-0.161 0-0.002 0-0.004-0-0.005v0c0-0.006 0.001-0.013 0.001-0.020 0-0.051-0.010-0.099-0.029-0.142l0.001 0.002c-0.023-0.053-0.055-0.098-0.096-0.135l-0-0c-0.090-0.067-0.204-0.108-0.327-0.108-0.015 0-0.029 0.001-0.044 0.002l0.002-0h-0.332v0.813zM32.107 27.499h-0.217c-0.001 0-0.003 0-0.004 0-0.021 0-0.041-0.007-0.057-0.018l0 0c-0.015-0.012-0.027-0.027-0.035-0.045l-0-0.001-0.187-0.477h-0.937l-0.194 0.477c-0.008 0.018-0.019 0.033-0.034 0.044l-0 0c-0.016 0.012-0.036 0.020-0.058 0.020-0.001 0-0.002-0-0.004-0h-0.216l0.823-1.975h0.285l0.834 1.975zM30.749 26.766h0.774l-0.326-0.804c-0.022-0.051-0.043-0.112-0.060-0.176l-0.002-0.010-0.032 0.103c-0.011 0.035-0.021 0.063-0.032 0.090l0.002-0.006-0.324 0.802zM33.292 25.533c0.017 0.009 0.030 0.021 0.042 0.036l1.2 1.488v-1.532h0.245v1.975h-0.137c-0.001 0-0.002 0-0.004 0-0.019 0-0.037-0.004-0.053-0.012l0.001 0c-0.017-0.010-0.032-0.022-0.044-0.037l-0-0-1.199-1.487c0.001 0.022 0.001 0.045 0 0.068v1.468h-0.245v-1.975h0.145c0.017 0 0.034 0.003 0.049 0.009zM36.802 26.714v0.784h-0.275v-0.784l-0.758-1.189h0.245c0.002-0 0.003-0 0.005-0 0.020 0 0.039 0.006 0.054 0.017l-0-0c0.015 0.013 0.027 0.027 0.037 0.044l0 0.001 0.475 0.767c0.032 0.050 0.061 0.108 0.082 0.169l0.002 0.006 0.036-0.085c0.013-0.031 0.029-0.061 0.047-0.090l0.468-0.772c0.010-0.016 0.022-0.030 0.036-0.042l0-0c0.015-0.012 0.034-0.019 0.054-0.019 0.002 0 0.003 0 0.005 0h0.248l-0.76 1.195zM25.646 22.21c0.119 0.014 0.24 0.027 0.362 0.037 1.851-0.789 3.417-2.080 4.502-3.712s1.641-3.533 1.598-5.465l-2.040-1.943c0.135 0.641 0.213 1.377 0.213 2.131 0 1.444-0.284 2.822-0.799 4.080l0.026-0.072c-0.781 1.957-2.118 3.669-3.862 4.944z"></path>
<path fill="#afb1b8" d="M24.917 22.12l0.055 0.011c1.863-1.27 3.284-3.044 4.079-5.091 0.449-1.121 0.71-2.42 0.71-3.78 0-0.929-0.122-1.83-0.35-2.687l0.016 0.073-2.905-2.768c0.909 1.717 1.443 3.754 1.443 5.915 0 0.503-0.029 0.999-0.085 1.487l0.006-0.059c-0.284 2.522-1.314 4.914-2.969 6.9zM34.771 15.353c-0.494 2.123-1.692 4.036-3.419 5.458-0.476 0.397-1.008 0.764-1.57 1.082l-0.054 0.028c1.461-0.414 2.726-1.115 3.787-2.043l-0.011 0.010c1.050-0.918 1.881-2.060 2.422-3.353l0.022-0.060-1.179-1.122z"></path>
<path fill="#afb1b8" d="M34.309 15.040l-1.678-1.598c-0.038 1.921-0.62 3.699-1.598 5.195l0.023-0.038c-0.999 1.555-2.417 2.826-4.106 3.682h0.009c0.376 0 0.752-0.021 1.126-0.064 1.613-0.633 2.974-1.603 4.049-2.831l0.010-0.012c1.042-1.19 1.8-2.654 2.154-4.27l0.012-0.064zM25.161 6.709l-2.002-1.909c-1.789 0.659-3.328 1.817-4.415 3.323s-1.672 3.289-1.677 5.116c0.007 2.020 0.72 3.979 2.027 5.569s3.133 2.718 5.19 3.208c1.836-2.131 2.91-4.764 3.068-7.516s-0.61-5.481-2.192-7.79zM38.933 14.746c-0.007-2.396-1.009-4.692-2.788-6.386s-4.188-2.649-6.702-2.656c-1.162-0.001-2.314 0.203-3.398 0.603l12.254 11.675c0.401-0.957 0.634-2.068 0.634-3.234 0-0 0-0.001 0-0.001v0z"></path>
</svg>
