<!-- Generated by IcoMoon.io -->
<svg version="1.1" xmlns="http://www.w3.org/2000/svg" width="57" height="32" viewBox="0 0 57 32">
<title>LogoClient2</title>
<path fill="#afb1b8" d="M26.654 3.699h0.073c0.135 0 0.281 0.013 0.425 0.026 0.636 0.045 1.268 0.14 1.889 0.285v-1.527c-0.64-0.161-1.292-0.265-1.949-0.311-0.22-0.017-0.494-0.031-0.77-0.038l-0.018-0h-0.228c-1.32 0.005-2.635 0.174-3.913 0.505-1.456 0.363-2.853 0.932-4.151 1.689v15.145c1.137-0.632 2.454-1.16 3.84-1.517l0.117-0.026c0.973-0.26 2.109-0.442 3.276-0.508l0.046-0.002h0.045c0.188-0.010 0.375-0.015 0.568-0.016v-1.552c-1.543 0.021-3.027 0.229-4.445 0.602l0.128-0.029c-0.523 0.136-1.027 0.283-1.5 0.445l-0.54 0.183v-11.809l0.23-0.111c1.638-0.796 3.549-1.311 5.568-1.429l0.041-0.002c0.007-0.001 0.016-0.001 0.025-0.001s0.017 0 0.026 0.001l-0.001-0c0.214-0.011 0.43-0.016 0.642-0.016h0.243c0.112 0.003 0.224 0.005 0.336 0.012z"></path>
<path fill="#afb1b8" d="M30.459 5.298c-0.004 0-0.009 0-0.014 0-0.793 0-1.57-0.067-2.326-0.195l0.081 0.011c-0.24-0.041-0.476-0.090-0.706-0.142v14.972c0.971 0.24 1.968 0.357 2.969 0.35 1.393-0.006 2.74-0.189 4.024-0.528l-0.111 0.025c1.574-0.4 2.957-0.979 4.226-1.729l-0.074 0.040v-14.875c-1.137 0.631-2.453 1.16-3.838 1.517l-0.118 0.026c-1.344 0.346-2.726 0.523-4.114 0.528zM36.445 5.556l0.54-0.181v11.812l-0.23 0.111c-0.783 0.384-1.701 0.723-2.657 0.969l-0.103 0.022c-1.154 0.299-2.339 0.452-3.531 0.457-0.356 0-0.709-0.015-1.052-0.045l-0.37-0.033v-12.148l0.43 0.029c0.284 0.019 0.616 0.030 0.951 0.030 0.013 0 0.026-0 0.040-0h-0.002c1.595-0.006 3.139-0.215 4.611-0.604l-0.127 0.029c0.503-0.133 1.004-0.282 1.5-0.449zM19.060 24.646c-0.145-0.15-0.348-0.243-0.573-0.243-0.010 0-0.020 0-0.029 0.001l0.001-0c-0.004-0-0.008-0-0.012-0-0.121 0-0.236 0.024-0.34 0.067l0.006-0.002c-0.205 0.082-0.364 0.243-0.442 0.444l-0.002 0.005c-0.043 0.107-0.063 0.22-0.062 0.335v2.023c-0.005 0.142 0.022 0.284 0.079 0.415 0.048 0.104 0.117 0.196 0.203 0.271 0.081 0.068 0.176 0.117 0.277 0.144 0.099 0.027 0.201 0.042 0.302 0.042 0.113 0.001 0.224-0.023 0.326-0.070 0.304-0.135 0.512-0.434 0.512-0.781v-0.226h-0.529v0.18c0 0.003 0 0.007 0 0.011 0 0.061-0.012 0.119-0.033 0.173l0.001-0.003c-0.018 0.045-0.044 0.083-0.077 0.114l-0 0c-0.061 0.047-0.137 0.076-0.221 0.077h-0c-0.009 0.001-0.020 0.002-0.031 0.002-0.089 0-0.168-0.043-0.216-0.11l-0.001-0.001c-0.044-0.071-0.071-0.158-0.071-0.251 0-0.007 0-0.014 0-0.021l-0 0.001v-1.887c-0.003-0.105 0.019-0.208 0.065-0.302 0.049-0.075 0.132-0.124 0.227-0.124 0.011 0 0.022 0.001 0.033 0.002l-0.001-0c0.003-0 0.006-0 0.010-0 0.092 0 0.174 0.045 0.226 0.114l0.001 0.001c0.055 0.071 0.088 0.162 0.088 0.261 0 0.004-0 0.008-0 0.011v-0.001 0.175h0.523v-0.206c0-0.003 0-0.006 0-0.009 0-0.124-0.024-0.243-0.067-0.351l0.002 0.006c-0.041-0.111-0.102-0.205-0.177-0.285l0 0zM22.202 24.624c-0.161-0.137-0.372-0.221-0.602-0.223h-0c-0.108 0-0.214 0.020-0.316 0.057-0.218 0.078-0.39 0.239-0.482 0.443l-0.002 0.005c-0.053 0.123-0.079 0.257-0.077 0.392v1.94c-0.004 0.137 0.022 0.272 0.077 0.397 0.048 0.105 0.118 0.197 0.205 0.271 0.081 0.075 0.176 0.133 0.279 0.171 0.101 0.037 0.208 0.057 0.316 0.057 0.231-0 0.442-0.087 0.603-0.229l-0.001 0.001c0.084-0.076 0.152-0.168 0.199-0.271 0.054-0.125 0.081-0.261 0.077-0.397v-1.941c0-0.005 0-0.012 0-0.018 0-0.135-0.028-0.263-0.079-0.38l0.002 0.006c-0.049-0.111-0.117-0.205-0.199-0.283l-0-0zM21.955 27.239c0.001 0.009 0.001 0.019 0.001 0.030 0 0.099-0.041 0.188-0.107 0.251l-0 0c-0.067 0.056-0.154 0.090-0.249 0.090s-0.182-0.034-0.249-0.091l0.001 0c-0.066-0.063-0.106-0.152-0.106-0.251 0-0.011 0-0.021 0.001-0.032l-0 0.001v-1.941c-0.001-0.009-0.001-0.019-0.001-0.029 0-0.099 0.041-0.188 0.106-0.251l0-0c0.067-0.056 0.154-0.090 0.249-0.090s0.182 0.034 0.249 0.091l-0.001-0c0.066 0.063 0.107 0.152 0.107 0.251 0 0.011-0 0.021-0.001 0.031l0-0.001v1.941zM26.329 28.107v-3.675h-0.508l-0.668 1.945h-0.010l-0.673-1.945h-0.503v3.674h0.525v-2.235h0.010l0.514 1.58h0.261l0.518-1.58h0.009v2.235h0.525zM29.311 24.69c-0.081-0.091-0.183-0.16-0.297-0.201-0.108-0.036-0.232-0.057-0.361-0.057-0.007 0-0.014 0-0.021 0h-0.779v3.675h0.524v-1.435h0.27c0.163 0.007 0.325-0.027 0.472-0.1 0.12-0.068 0.217-0.163 0.286-0.278l0.002-0.003c0.060-0.098 0.101-0.206 0.12-0.32 0.018-0.116 0.028-0.249 0.028-0.385 0-0.012-0-0.023-0-0.035l0 0.002c0.005-0.176-0.012-0.353-0.051-0.525-0.037-0.132-0.104-0.246-0.193-0.338l0 0zM29.041 25.81c-0.002 0.070-0.020 0.136-0.049 0.194l0.001-0.003c-0.030 0.056-0.077 0.101-0.134 0.128l-0.002 0.001c-0.065 0.030-0.14 0.047-0.22 0.047-0.010 0-0.019-0-0.028-0.001l0.001 0h-0.239v-1.249h0.27c0.008-0 0.016-0.001 0.025-0.001 0.077 0 0.149 0.017 0.214 0.048l-0.003-0.001c0.054 0.031 0.096 0.078 0.122 0.134l0.001 0.002c0.029 0.065 0.044 0.134 0.046 0.205v0.244c0 0.085 0.005 0.174 0 0.252h-0.005zM31.79 24.432h-0.429l-0.81 3.675h0.524l0.154-0.789h0.714l0.154 0.789h0.523l-0.83-3.675zM31.308 26.817l0.258-1.332h0.010l0.256 1.332h-0.523zM35.173 26.645h-0.010l-0.791-2.213h-0.503v3.675h0.523v-2.21h0.011l0.8 2.209h0.493v-3.674h-0.523v2.213zM38.372 24.432l-0.421 1.461h-0.011l-0.421-1.461h-0.554l0.719 2.122v1.553h0.524v-1.553l0.719-2.121h-0.555zM17.6 29.144h0.252v0.708h0.171v-0.708h0.251v-0.145h-0.674v0.146zM19.721 28.998l-0.331 0.853h0.182l0.070-0.194h0.34l0.073 0.194h0.187l-0.339-0.853h-0.182zM19.694 29.514l0.116-0.316 0.116 0.316h-0.232zM21.818 29.537h0.197v0.11c-0.055 0.044-0.126 0.072-0.203 0.072h-0c-0.004 0-0.008 0-0.012 0-0.068 0-0.129-0.032-0.169-0.081l-0-0c-0.040-0.057-0.063-0.127-0.063-0.203 0-0.007 0-0.013 0.001-0.020l-0 0.001c0-0.19 0.082-0.285 0.245-0.285 0.006-0.001 0.012-0.001 0.018-0.001 0.084 0 0.155 0.058 0.174 0.136l0 0.001 0.169-0.033c-0.036-0.166-0.156-0.251-0.362-0.251-0.003-0-0.007-0-0.011-0-0.11 0-0.211 0.042-0.287 0.11l0-0c-0.076 0.075-0.124 0.18-0.124 0.296 0 0.011 0 0.022 0.001 0.033l-0-0.001c-0 0.006-0 0.013-0 0.020 0 0.115 0.041 0.22 0.11 0.301l-0.001-0.001c0.075 0.078 0.181 0.126 0.297 0.126 0.009 0 0.018-0 0.027-0.001l-0.001 0c0.004 0 0.009 0 0.014 0 0.134 0 0.257-0.052 0.348-0.137l-0 0v-0.336h-0.37v0.144zM23.958 28.998h-0.172v0.853h0.597v-0.145h-0.425v-0.708zM25.77 28.998h-0.173v0.853h0.173v-0.853zM27.539 29.568l-0.349-0.57h-0.167v0.853h0.161v-0.557l0.343 0.557h0.171v-0.853h-0.158v0.57zM29.14 29.476h0.425v-0.145h-0.425v-0.187h0.457v-0.146h-0.63v0.853h0.647v-0.145h-0.475v-0.231zM33.020 29.335h-0.336v-0.336h-0.171v0.853h0.171v-0.373h0.336v0.373h0.171v-0.853h-0.171v0.337zM34.629 29.476h0.427v-0.145h-0.427v-0.187h0.459v-0.146h-0.629v0.853h0.646v-0.145h-0.475v-0.231zM36.812 29.476c0.149-0.023 0.224-0.102 0.224-0.237 0.001-0.007 0.001-0.016 0.001-0.024 0-0.068-0.033-0.128-0.084-0.165l-0.001-0c-0.063-0.032-0.137-0.051-0.216-0.051-0.012 0-0.023 0-0.035 0.001l0.002-0h-0.362v0.853h0.171v-0.357h0.034c0.004-0 0.009-0 0.014-0 0.034 0 0.066 0.007 0.094 0.020l-0.001-0.001c0.025 0.015 0.046 0.037 0.061 0.062l0.186 0.271h0.205l-0.103-0.166c-0.047-0.083-0.111-0.152-0.187-0.203l-0.002-0.001zM36.64 29.358h-0.127v-0.214h0.135c0.011-0.001 0.023-0.001 0.036-0.001 0.049 0 0.097 0.008 0.141 0.023l-0.003-0.001c0.023 0.020 0.038 0.050 0.038 0.083 0 0.019-0.005 0.037-0.014 0.053l0-0.001c-0.008 0.015-0.019 0.027-0.032 0.037l-0 0c-0.043 0.014-0.092 0.021-0.142 0.021-0.011 0-0.022-0-0.033-0.001l0.001 0zM38.459 29.476h0.425v-0.145h-0.425v-0.187h0.459v-0.146h-0.631v0.853h0.647v-0.145h-0.475v-0.231z"></path>
</svg>
