<!-- Generated by IcoMoon.io -->
<svg version="1.1" xmlns="http://www.w3.org/2000/svg" width="57" height="32" viewBox="0 0 57 32">
<title>LogoClient4</title>
<path d="M13.548 11.643h-0.001c-1.206 0-2.185 0.954-2.185 2.129v0.002c0 1.175 0.978 2.129 2.185 2.129h0.002c1.206 0 2.185-0.954 2.185-2.129v-0.002c0-1.175-0.978-2.129-2.185-2.129zM29.673 10.963c-0.004-1.634-0.671-3.199-1.856-4.354-1.184-1.155-2.79-1.805-4.466-1.809-1.676 0.003-3.283 0.653-4.469 1.808s-1.853 2.721-1.856 4.355v9.005s12.645-1.372 12.647-9.004v-0.001zM6.933 22.924c0.006 1.189 0.499 2.261 1.291 3.028l0.001 0.001c0.803 0.779 1.899 1.259 3.108 1.26h0c1.208-0.001 2.304-0.481 3.108-1.26l-0.001 0.001c0.793-0.768 1.286-1.84 1.293-3.027v-6.268s-8.799 0.957-8.799 6.266zM11.333 24.046c-0.001 0-0.001 0-0.002 0-0.237 0-0.458-0.070-0.643-0.192l0.004 0.003c-0.188-0.122-0.334-0.294-0.422-0.497l-0.003-0.007c-0.055-0.127-0.087-0.274-0.087-0.429 0-0.078 0.008-0.154 0.024-0.227l-0.001 0.007c0.048-0.227 0.159-0.423 0.314-0.575l0-0c0.158-0.153 0.359-0.262 0.583-0.306l0.007-0.001c0.223-0.044 0.455-0.021 0.666 0.064s0.39 0.229 0.517 0.413c0.122 0.175 0.194 0.391 0.194 0.625 0 0.155-0.032 0.303-0.090 0.437l0.003-0.007c-0.058 0.137-0.142 0.261-0.249 0.366s-0.235 0.188-0.374 0.244c-0.131 0.054-0.282 0.086-0.442 0.086-0 0-0 0-0.001 0h0v-0.004zM20.315 23.35h-0.9v0.93h-0.469v-2.274h1.482v0.38h-1.012v0.587h0.9v0.379zM22.567 23.194c0 0.224-0.039 0.42-0.119 0.589s-0.193 0.299-0.34 0.39c-0.139 0.087-0.308 0.138-0.489 0.138-0.006 0-0.013-0-0.019-0h0.001c-0.188 0-0.357-0.045-0.505-0.136-0.149-0.094-0.267-0.225-0.341-0.382l-0.002-0.006c-0.078-0.165-0.124-0.358-0.124-0.563 0-0.007 0-0.013 0-0.020v0.001-0.113c0-0.224 0.040-0.421 0.121-0.591 0.081-0.171 0.195-0.301 0.342-0.392 0.148-0.092 0.317-0.138 0.507-0.138s0.357 0.046 0.505 0.138c0.148 0.091 0.262 0.221 0.342 0.392 0.082 0.17 0.122 0.366 0.122 0.589v0.101zM22.093 23.091c0-0.238-0.043-0.42-0.128-0.544-0.076-0.113-0.203-0.186-0.348-0.186-0.006 0-0.013 0-0.019 0l0.001-0c-0.005-0-0.012-0-0.018-0-0.144 0-0.271 0.073-0.346 0.183l-0.001 0.001c-0.085 0.122-0.129 0.301-0.13 0.537v0.111c0 0.233 0.043 0.413 0.128 0.541s0.208 0.192 0.369 0.192c0.006 0 0.012 0 0.018 0 0.143 0 0.269-0.073 0.343-0.183l0.001-0.001c0.084-0.124 0.127-0.304 0.128-0.541v-0.111zM24.087 23.683c0-0.004 0-0.009 0-0.013 0-0.077-0.037-0.145-0.093-0.189l-0.001-0c-0.062-0.048-0.175-0.098-0.338-0.15-0.15-0.047-0.278-0.1-0.4-0.163l0.014 0.006c-0.258-0.14-0.387-0.327-0.387-0.564 0-0.123 0.034-0.233 0.103-0.329 0.070-0.097 0.17-0.172 0.299-0.227 0.13-0.054 0.276-0.081 0.437-0.081 0.163 0 0.307 0.030 0.435 0.089s0.225 0.141 0.295 0.249c0.071 0.107 0.107 0.229 0.107 0.366h-0.469c0-0.105-0.033-0.185-0.098-0.242-0.066-0.059-0.158-0.088-0.277-0.088-0.115 0-0.203 0.025-0.267 0.074-0.058 0.042-0.096 0.109-0.096 0.186 0 0.002 0 0.004 0 0.006v-0c0 0.074 0.037 0.135 0.111 0.186s0.185 0.097 0.33 0.141c0.267 0.080 0.461 0.18 0.583 0.299s0.182 0.267 0.182 0.443c0 0.197-0.075 0.352-0.223 0.464s-0.349 0.167-0.602 0.167c-0.175 0-0.334-0.032-0.478-0.095-0.135-0.058-0.247-0.148-0.328-0.262l-0.002-0.002c-0.071-0.105-0.113-0.235-0.113-0.374 0-0.005 0-0.009 0-0.014v0.001h0.47c0 0.251 0.15 0.377 0.45 0.377 0.112 0 0.199-0.022 0.261-0.067 0.057-0.041 0.094-0.107 0.094-0.182 0-0.003-0-0.006-0-0.009v0zM26.589 22.385h-0.697v1.895h-0.469v-1.895h-0.687v-0.38h1.853v0.38zM28.227 23.294h-0.9v0.609h1.056v0.377h-1.525v-2.274h1.522v0.38h-1.053v0.542h0.9v0.367zM29.5 23.447h-0.373v0.833h-0.469v-2.274h0.846c0.269 0 0.476 0.060 0.622 0.18s0.219 0.289 0.219 0.508c0 0.155-0.034 0.285-0.101 0.389-0.075 0.109-0.179 0.194-0.301 0.245l-0.005 0.002 0.492 0.93v0.022h-0.503l-0.427-0.833zM29.127 23.067h0.378c0.117 0 0.209-0.030 0.273-0.089 0.060-0.059 0.098-0.141 0.098-0.232 0-0.006-0-0.012-0-0.018l0 0.001c0-0.107-0.030-0.192-0.092-0.253-0.060-0.062-0.154-0.092-0.279-0.092h-0.377v0.683zM31.967 23.478v0.802h-0.469v-2.274h0.887c0.171 0 0.321 0.031 0.45 0.094 0.13 0.062 0.23 0.151 0.3 0.267s0.105 0.245 0.105 0.393c0 0.223-0.077 0.399-0.23 0.528-0.152 0.128-0.363 0.192-0.633 0.192h-0.411zM31.967 23.099h0.419c0.124 0 0.219-0.029 0.283-0.088 0.066-0.058 0.099-0.141 0.099-0.25 0-0.005 0-0.011 0-0.016 0-0.098-0.038-0.187-0.099-0.254l0 0c-0.066-0.069-0.156-0.104-0.272-0.107h-0.429v0.715zM34.933 23.294h-0.9v0.609h1.056v0.377h-1.525v-2.274h1.522v0.38h-1.053v0.542h0.9v0.367zM37.108 22.385h-0.698v1.895h-0.469v-1.895h-0.687v-0.38h1.853v0.38zM38.746 23.294h-0.9v0.609h1.056v0.377h-1.524v-2.274h1.522v0.38h-1.053v0.542h0.9v0.367zM40.019 23.447h-0.373v0.833h-0.469v-2.274h0.845c0.269 0 0.476 0.060 0.622 0.18s0.219 0.289 0.219 0.508c0 0.155-0.034 0.285-0.101 0.389-0.075 0.109-0.179 0.194-0.3 0.245l-0.005 0.002 0.492 0.93v0.022h-0.503l-0.427-0.833zM39.646 23.067h0.378c0.118 0 0.209-0.030 0.274-0.089 0.060-0.059 0.097-0.141 0.097-0.232 0-0.006-0-0.012-0-0.018l0 0.001c0-0.107-0.031-0.192-0.092-0.253-0.060-0.062-0.154-0.092-0.28-0.092h-0.377v0.683zM42.401 23.683c0-0.004 0-0.008 0-0.013 0-0.077-0.037-0.146-0.094-0.189l-0.001-0c-0.063-0.048-0.175-0.098-0.338-0.15-0.15-0.047-0.278-0.1-0.4-0.163l0.014 0.006c-0.258-0.14-0.387-0.327-0.387-0.564 0-0.123 0.034-0.233 0.103-0.329s0.169-0.172 0.299-0.227c0.13-0.054 0.276-0.081 0.437-0.081 0.163 0 0.307 0.030 0.434 0.089s0.226 0.141 0.295 0.249c0.071 0.107 0.107 0.229 0.107 0.366h-0.469c0-0.105-0.033-0.185-0.098-0.242-0.066-0.059-0.158-0.088-0.277-0.088-0.115 0-0.204 0.025-0.267 0.074-0.058 0.042-0.096 0.109-0.096 0.186 0 0.002 0 0.004 0 0.006v-0c0 0.074 0.037 0.135 0.111 0.186s0.185 0.097 0.33 0.141c0.267 0.080 0.461 0.18 0.583 0.299s0.182 0.267 0.182 0.443c0 0.197-0.075 0.352-0.223 0.464s-0.349 0.167-0.602 0.167c-0.175 0-0.334-0.032-0.478-0.095-0.135-0.058-0.247-0.148-0.328-0.262l-0.002-0.002c-0.071-0.105-0.113-0.235-0.113-0.374 0-0.005 0-0.009 0-0.014v0.001h0.47c0 0.251 0.149 0.377 0.45 0.377 0.112 0 0.199-0.022 0.261-0.067 0.057-0.041 0.094-0.107 0.094-0.182 0-0.003-0-0.007-0-0.010l0 0z"></path>
</svg>
